<svg width="420" height="140" viewBox="0 0 420 140" fill="none" xmlns="http://www.w3.org/2000/svg">
  <rect width="420" height="140" rx="18" fill="none"/>
  <path d="M36 35H145V48L72 104H145V117H36V104L109 48H36V35Z" fill="#F5FCFF"/>
  <path d="M187 42C176.7 49.3 170.5 60.7 170.5 74.5C170.5 98.7 188.7 116.5 214.5 116.5C226.5 116.5 236.3 112.7 244.5 105.1L232.3 95.7C227.4 100.1 221.7 102.2 214.9 102.2C198.7 102.2 187.2 90.9 187.2 74.5C187.2 58.1 198.7 46.8 214.9 46.8C221.7 46.8 227.4 48.9 232.3 53.3L244.5 43.9C236.3 36.3 226.5 32.5 214.5 32.5C204.2 32.5 195 35.7 187 42Z" fill="#F5FCFF"/>
  <path d="M278.6 30.8C262 30.8 249.4 37.1 242 48.2L255.5 56.2C260.5 49.3 268.2 45.8 277.8 45.8C293.4 45.8 304.1 56.8 304.1 74.6C304.1 92.4 293.4 103.4 277.8 103.4C268.2 103.4 260.5 99.9 255.5 92.9L242 100.9C249.3 112.1 261.9 118.4 278.6 118.4C303.9 118.4 321.3 100.8 321.3 74.6C321.3 48.4 303.9 30.8 278.6 30.8Z" fill="#A8E2FF"/>
  <path d="M230 24L299 24" stroke="#63D6FF" stroke-width="8" stroke-linecap="round"/>
  <path d="M230 24L258 24" stroke="#FF6D98" stroke-width="8" stroke-linecap="round"/>
  <path d="M296 42L322 42" stroke="#63D6FF" stroke-width="6" stroke-linecap="round" opacity="0.75"/>
</svg>
